<svg id="Layer_10" data-name="Layer 10" xmlns="http://www.w3.org/2000/svg" viewBox="0 0 1440 900" style=""><defs><style>.cls-1,.cls-3{fill:none;stroke:#0280ff;stroke-linejoin:round;}.cls-1{stroke-linecap:round;}.cls-2{opacity:0.85;}</style></defs><title>splash-4-lines</title><path class="cls-1 nLpHlFFR_0" d="M849.21,320.94l1.18-65.13a16.3,16.3,0,0,1,8.15-14.11l47.4-27.36a15.49,15.49,0,0,1,15.26-.13l41,22.79"></path><path class="cls-1 nLpHlFFR_1" d="M881.42,228.41a15.49,15.49,0,0,1,15.26-.13l56.47,32.38"></path><path class="cls-1 nLpHlFFR_2" d="M1037.53,365.49,1131.89,420a16.3,16.3,0,0,1,8.15,14.11v94.27"></path><path class="cls-1 nLpHlFFR_3" d="M1140,468.45l62.65,36.17a16.3,16.3,0,0,1,8.15,14.11v66"></path><path class="cls-1 nLpHlFFR_4" d="M807.23,435.63l37.22,21.49a16.3,16.3,0,0,1,8.15,14.11V530.1"></path><path class="cls-1 nLpHlFFR_5" d="M852.6,493.95l11.94,6.57a16.3,16.3,0,0,1,8.15,14.11v25.11"></path><path class="cls-1 nLpHlFFR_6" d="M1035.52,289.89l35.63-19.51a14.17,14.17,0,0,1,14.17,0l115.14,67.37a16.3,16.3,0,0,1,8.15,14.11v50.67"></path><path class="cls-1 nLpHlFFR_7" d="M1035.19,274.6l22.09-12.72a14.17,14.17,0,0,1,14.17,0l129,75.87a16.3,16.3,0,0,1,8.15,14.11v50.67"></path><path class="cls-1 nLpHlFFR_8" d="M994.02,315.29L1035.52,289.89L1023.46,282.93"></path><path class="cls-1 nLpHlFFR_9" d="M994.02,300.19L1035.52,274.79L1023.46,267.83"></path><path class="cls-1 nLpHlFFR_10" d="M807.23,476.81V415.54a16.3,16.3,0,0,1,8.15-14.11l80-46.2a14.17,14.17,0,0,1,14.17,0l44.6,26.14"></path><path class="cls-1 nLpHlFFR_11" d="M807.23,476.81V415.54a16.3,16.3,0,0,1,8.15-14.11l94.1-54.8a14.17,14.17,0,0,1,14.17,0l30.14,17.67"></path><path class="cls-1 nLpHlFFR_12" d="M1037.15,243.5L1037.15,415.9"></path><path class="cls-1 nLpHlFFR_13" d="M994.06,343.93L994.06,438.94"></path><g class="cls-2"><path class="cls-3 nLpHlFFR_14" d="M952.59,319.62L972.29,272.96L994.02,343.54"></path><path class="cls-3 nLpHlFFR_15" d="M993.99,285.46L972.25,331.73L952.76,260.78L972.29,213.98L994.02,284.55"></path><path class="cls-3 nLpHlFFR_16" d="M993.99,226.47L972.25,272.74L953.15,201.98"></path></g><path class="cls-1 nLpHlFFR_17" d="M990.48,407.4L990.48,396.49L954.11,375.47L954.11,386.37L990.48,407.4Z"></path><path class="cls-1 nLpHlFFR_18" d="M990.48,391.43L990.48,380.53L954.11,359.5L954.11,370.41L990.48,391.43Z"></path><style data-made-with="vivus-instant">.nLpHlFFR_0{stroke-dasharray:200 202;stroke-dashoffset:201;animation:nLpHlFFR_draw_0 5000ms ease-in-out 0ms infinite,nLpHlFFR_fade 5000ms linear 0ms infinite;}.nLpHlFFR_1{stroke-dasharray:82 84;stroke-dashoffset:83;animation:nLpHlFFR_draw_1 5000ms ease-in-out 0ms infinite,nLpHlFFR_fade 5000ms linear 0ms infinite;}.nLpHlFFR_2{stroke-dasharray:221 223;stroke-dashoffset:222;animation:nLpHlFFR_draw_2 5000ms ease-in-out 0ms infinite,nLpHlFFR_fade 5000ms linear 0ms infinite;}.nLpHlFFR_3{stroke-dasharray:156 158;stroke-dashoffset:157;animation:nLpHlFFR_draw_3 5000ms ease-in-out 0ms infinite,nLpHlFFR_fade 5000ms linear 0ms infinite;}.nLpHlFFR_4{stroke-dasharray:119 121;stroke-dashoffset:120;animation:nLpHlFFR_draw_4 5000ms ease-in-out 0ms infinite,nLpHlFFR_fade 5000ms linear 0ms infinite;}.nLpHlFFR_5{stroke-dasharray:56 58;stroke-dashoffset:57;animation:nLpHlFFR_draw_5 5000ms ease-in-out 0ms infinite,nLpHlFFR_fade 5000ms linear 0ms infinite;}.nLpHlFFR_6{stroke-dasharray:257 259;stroke-dashoffset:258;animation:nLpHlFFR_draw_6 5000ms ease-in-out 0ms infinite,nLpHlFFR_fade 5000ms linear 0ms infinite;}.nLpHlFFR_7{stroke-dasharray:258 260;stroke-dashoffset:259;animation:nLpHlFFR_draw_7 5000ms ease-in-out 0ms infinite,nLpHlFFR_fade 5000ms linear 0ms infinite;}.nLpHlFFR_8{stroke-dasharray:63 65;stroke-dashoffset:64;animation:nLpHlFFR_draw_8 5000ms ease-in-out 0ms infinite,nLpHlFFR_fade 5000ms linear 0ms infinite;}.nLpHlFFR_9{stroke-dasharray:63 65;stroke-dashoffset:64;animation:nLpHlFFR_draw_9 5000ms ease-in-out 0ms infinite,nLpHlFFR_fade 5000ms linear 0ms infinite;}.nLpHlFFR_10{stroke-dasharray:238 240;stroke-dashoffset:239;animation:nLpHlFFR_draw_10 5000ms ease-in-out 0ms infinite,nLpHlFFR_fade 5000ms linear 0ms infinite;}.nLpHlFFR_11{stroke-dasharray:238 240;stroke-dashoffset:239;animation:nLpHlFFR_draw_11 5000ms ease-in-out 0ms infinite,nLpHlFFR_fade 5000ms linear 0ms infinite;}.nLpHlFFR_12{stroke-dasharray:173 175;stroke-dashoffset:174;animation:nLpHlFFR_draw_12 5000ms ease-in-out 0ms infinite,nLpHlFFR_fade 5000ms linear 0ms infinite;}.nLpHlFFR_13{stroke-dasharray:96 98;stroke-dashoffset:97;animation:nLpHlFFR_draw_13 5000ms ease-in-out 0ms infinite,nLpHlFFR_fade 5000ms linear 0ms infinite;}.nLpHlFFR_14{stroke-dasharray:125 127;stroke-dashoffset:126;animation:nLpHlFFR_draw_14 5000ms ease-in-out 0ms infinite,nLpHlFFR_fade 5000ms linear 0ms infinite;}.nLpHlFFR_15{stroke-dasharray:250 252;stroke-dashoffset:251;animation:nLpHlFFR_draw_15 5000ms ease-in-out 0ms infinite,nLpHlFFR_fade 5000ms linear 0ms infinite;}.nLpHlFFR_16{stroke-dasharray:125 127;stroke-dashoffset:126;animation:nLpHlFFR_draw_16 5000ms ease-in-out 0ms infinite,nLpHlFFR_fade 5000ms linear 0ms infinite;}.nLpHlFFR_17{stroke-dasharray:106 108;stroke-dashoffset:107;animation:nLpHlFFR_draw_17 5000ms ease-in-out 0ms infinite,nLpHlFFR_fade 5000ms linear 0ms infinite;}.nLpHlFFR_18{stroke-dasharray:106 108;stroke-dashoffset:107;animation:nLpHlFFR_draw_18 5000ms ease-in-out 0ms infinite,nLpHlFFR_fade 5000ms linear 0ms infinite;}@keyframes nLpHlFFR_draw{100%{stroke-dashoffset:0;}}@keyframes nLpHlFFR_fade{0%{stroke-opacity:1;}94%{stroke-opacity:1;}100%{stroke-opacity:0;}}@keyframes nLpHlFFR_draw_0{0%{stroke-dashoffset: 201}5.721450355811589%{ stroke-dashoffset: 0;}100%{ stroke-dashoffset: 0;}}@keyframes nLpHlFFR_draw_1{5.721450355811589%{stroke-dashoffset: 83}8.084039308708913%{ stroke-dashoffset: 0;}100%{ stroke-dashoffset: 0;}}@keyframes nLpHlFFR_draw_2{8.084039308708913%{stroke-dashoffset: 222}14.403253134530669%{ stroke-dashoffset: 0;}100%{ stroke-dashoffset: 0;}}@keyframes nLpHlFFR_draw_3{14.403253134530669%{stroke-dashoffset: 157}18.87224669603524%{ stroke-dashoffset: 0;}100%{ stroke-dashoffset: 0;}}@keyframes nLpHlFFR_draw_4{18.87224669603524%{stroke-dashoffset: 120}22.288037953236188%{ stroke-dashoffset: 0;}100%{ stroke-dashoffset: 0;}}@keyframes nLpHlFFR_draw_5{22.288037953236195%{stroke-dashoffset: 57}23.910538800406645%{ stroke-dashoffset: 0;}100%{ stroke-dashoffset: 0;}}@keyframes nLpHlFFR_draw_6{23.910538800406645%{stroke-dashoffset: 258}31.254490003388685%{ stroke-dashoffset: 0;}100%{ stroke-dashoffset: 0;}}@keyframes nLpHlFFR_draw_7{31.254490003388685%{stroke-dashoffset: 259}38.62690613351406%{ stroke-dashoffset: 0;}100%{ stroke-dashoffset: 0;}}@keyframes nLpHlFFR_draw_8{38.62690613351406%{stroke-dashoffset: 64}40.4486614706879%{ stroke-dashoffset: 0;}100%{ stroke-dashoffset: 0;}}@keyframes nLpHlFFR_draw_9{40.4486614706879%{stroke-dashoffset: 64}42.270416807861736%{ stroke-dashoffset: 0;}100%{ stroke-dashoffset: 0;}}@keyframes nLpHlFFR_draw_10{42.27041680786175%{stroke-dashoffset: 239}49.073534395120305%{ stroke-dashoffset: 0;}100%{ stroke-dashoffset: 0;}}@keyframes nLpHlFFR_draw_11{49.073534395120305%{stroke-dashoffset: 239}55.87665198237887%{ stroke-dashoffset: 0;}100%{ stroke-dashoffset: 0;}}@keyframes nLpHlFFR_draw_12{55.87665198237885%{stroke-dashoffset: 174}60.82954930532023%{ stroke-dashoffset: 0;}100%{ stroke-dashoffset: 0;}}@keyframes nLpHlFFR_draw_13{60.82954930532023%{stroke-dashoffset: 97}63.59064723822434%{ stroke-dashoffset: 0;}100%{ stroke-dashoffset: 0;}}@keyframes nLpHlFFR_draw_14{63.59064723822433%{stroke-dashoffset: 126}67.17722805828534%{ stroke-dashoffset: 0;}100%{ stroke-dashoffset: 0;}}@keyframes nLpHlFFR_draw_15{67.17722805828534%{stroke-dashoffset: 251}74.32192477126398%{ stroke-dashoffset: 0;}100%{ stroke-dashoffset: 0;}}@keyframes nLpHlFFR_draw_16{74.32192477126398%{stroke-dashoffset: 126}77.90850559132497%{ stroke-dashoffset: 0;}100%{ stroke-dashoffset: 0;}}@keyframes nLpHlFFR_draw_17{77.90850559132497%{stroke-dashoffset: 107}80.95425279566248%{ stroke-dashoffset: 0;}100%{ stroke-dashoffset: 0;}}@keyframes nLpHlFFR_draw_18{80.95425279566248%{stroke-dashoffset: 107}84%{ stroke-dashoffset: 0;}100%{ stroke-dashoffset: 0;}}</style></svg>