<svg id="Layer_10" data-name="Layer 10" xmlns="http://www.w3.org/2000/svg" viewBox="0 0 1440 900"><defs><style>.cls-1,.cls-3{fill:none;stroke:#0280ff;stroke-linejoin:round;}.cls-1{stroke-linecap:round;}.cls-2{opacity:0.85;}</style></defs><title>splash-4-lines</title><path class="cls-1" d="M849.21,320.94l1.18-65.13a16.3,16.3,0,0,1,8.15-14.11l47.4-27.36a15.49,15.49,0,0,1,15.26-.13l41,22.79"/><path class="cls-1" d="M881.42,228.41a15.49,15.49,0,0,1,15.26-.13l56.47,32.38"/><path class="cls-1" d="M1037.53,365.49,1131.89,420a16.3,16.3,0,0,1,8.15,14.11v94.27"/><path class="cls-1" d="M1140,468.45l62.65,36.17a16.3,16.3,0,0,1,8.15,14.11v66"/><path class="cls-1" d="M807.23,435.63l37.22,21.49a16.3,16.3,0,0,1,8.15,14.11V530.1"/><path class="cls-1" d="M852.6,493.95l11.94,6.57a16.3,16.3,0,0,1,8.15,14.11v25.11"/><path class="cls-1" d="M1035.52,289.89l35.63-19.51a14.17,14.17,0,0,1,14.17,0l115.14,67.37a16.3,16.3,0,0,1,8.15,14.11v50.67"/><path class="cls-1" d="M1035.19,274.6l22.09-12.72a14.17,14.17,0,0,1,14.17,0l129,75.87a16.3,16.3,0,0,1,8.15,14.11v50.67"/><polyline class="cls-1" points="994.02 315.29 1035.52 289.89 1023.46 282.93"/><polyline class="cls-1" points="994.02 300.19 1035.52 274.79 1023.46 267.83"/><path class="cls-1" d="M807.23,476.81V415.54a16.3,16.3,0,0,1,8.15-14.11l80-46.2a14.17,14.17,0,0,1,14.17,0l44.6,26.14"/><path class="cls-1" d="M807.23,476.81V415.54a16.3,16.3,0,0,1,8.15-14.11l94.1-54.8a14.17,14.17,0,0,1,14.17,0l30.14,17.67"/><line class="cls-1" x1="1037.15" y1="243.5" x2="1037.15" y2="415.9"/><line class="cls-1" x1="994.06" y1="343.93" x2="994.06" y2="438.94"/><g class="cls-2"><polyline class="cls-3" points="952.59 319.62 972.29 272.96 994.02 343.54"/><polyline class="cls-3" points="993.99 285.46 972.25 331.73 952.76 260.78 972.29 213.98 994.02 284.55"/><polyline class="cls-3" points="993.99 226.47 972.25 272.74 953.15 201.98"/></g><polygon class="cls-1" points="990.48 407.4 990.48 396.49 954.11 375.47 954.11 386.37 990.48 407.4"/><polygon class="cls-1" points="990.48 391.43 990.48 380.53 954.11 359.5 954.11 370.41 990.48 391.43"/></svg>