<svg id="Layer_12" data-name="Layer 12" xmlns="http://www.w3.org/2000/svg" viewBox="0 0 1440 900"><defs><style>.cls-1{fill:#f0f0f0;}.cls-2{fill:#d1d1d1;}.cls-3{fill:#ccc;}</style></defs><title>splash-4boxes</title><polygon class="cls-1" points="1114.27 353.89 1155.58 378.16 1130.1 392.7 1088.79 368.44 1114.27 353.89"/><polygon class="cls-2" points="1088.8 368.43 1088.79 398.79 1130.1 423.05 1130.11 392.7 1088.8 368.43"/><polygon class="cls-3" points="1155.6 378.15 1155.59 408.5 1130.1 423.05 1130.11 392.7 1155.6 378.15"/><polygon class="cls-1" points="1265.05 523.18 1306.36 547.44 1280.88 561.99 1239.57 537.73 1265.05 523.18"/><polygon class="cls-2" points="1239.58 537.72 1239.57 568.07 1280.88 592.34 1280.89 561.98 1239.58 537.72"/><polygon class="cls-3" points="1306.38 547.43 1306.37 577.79 1280.88 592.34 1280.89 561.98 1306.38 547.43"/><polygon class="cls-1" points="1120.63 629.63 1182.61 665.72 1157.13 680.26 1095.15 644.18 1120.63 629.63"/><polygon class="cls-2" points="1095.17 644.17 1095.16 646.19 1157.13 682.28 1157.14 680.25 1095.17 644.17"/><polygon class="cls-3" points="1182.62 665.71 1182.61 667.73 1157.13 682.28 1157.14 680.25 1182.62 665.71"/><polygon class="cls-1" points="674.83 457.41 713.57 479.98 697.64 489.07 658.9 466.51 674.83 457.41"/><polygon class="cls-2" points="658.91 466.5 658.9 467.77 697.64 490.33 697.65 489.06 658.91 466.5"/><polygon class="cls-3" points="713.58 479.97 713.57 481.24 697.64 490.33 697.65 489.06 713.58 479.97"/><polygon class="cls-1" points="847.47 410.33 886.21 432.89 870.28 441.99 831.53 419.43 847.47 410.33"/><polygon class="cls-2" points="831.54 419.42 831.54 420.69 870.28 443.25 870.29 441.99 831.54 419.42"/><polygon class="cls-3" points="886.22 432.89 886.21 434.16 870.28 443.25 870.29 441.99 886.22 432.89"/><polygon class="cls-1" points="528.81 288.11 587.08 322.04 563.12 335.72 504.86 301.79 528.81 288.11"/><polygon class="cls-2" points="504.87 301.78 504.86 303.69 563.13 337.62 563.14 335.71 504.87 301.78"/><polygon class="cls-3" points="587.09 322.04 587.08 323.94 563.13 337.62 563.13 335.71 587.09 322.04"/><polygon class="cls-1" points="1040.74 354.94 1087.1 342.7 1081.93 361.63 1035.57 373.86 1040.74 354.94"/><polygon class="cls-2" points="1035.57 373.85 1036.53 374.81 1082.89 362.58 1081.93 361.62 1035.57 373.85"/><polygon class="cls-3" points="1087.1 342.69 1088.05 343.65 1082.89 362.58 1081.93 361.62 1087.1 342.69"/></svg>